# xmcd
#
# Track frame offsets: 
#        150
#        17519
#        32986
#        53395
#        77577
#        97504
#        129506
#        150881
#        170358
#        192905
#        212383
#        228033
#        247234
#        265329
#        285194
#        302312
#        321735
#        343501
#
# Disc length: 4799 seconds
#
# Revision: 2
# Processed by: cddbd v1.5.2PL0 Copyright (c) Steve Scherf et al.
# Submitted via: ExactAudioCopy v1.0b3
#
DISCID=d612bd12
DTITLE=Luther Vandross - The Ultimate Luther Vandross
DYEAR=2006
DGENRE=R&B
TTITLE0=Never Too Much
TTITLE1=Take You Out
TTITLE2=Superstar - Until You Come Back to Me (That's What I'm Gonna D
TTITLE2=o)
TTITLE3=Here and Now
TTITLE4=Dance with My Father
TTITLE5=A House Is Not a Home
TTITLE6=Give Me the Reason
TTITLE7=I'd Rather
TTITLE8=Any Love
TTITLE9=Power of Love - Love Power
TTITLE10=Think About You
TTITLE11=Wait for Love
TTITLE12=Your Secret Love
TTITLE13=The Closer I Get to You (Duet with Beyoncé)
TTITLE14=Buy Me a Rose
TTITLE15=Endless Love (Duet with Mariah Carey)
TTITLE16=Shine (Previously Unreleased)
TTITLE17=Got You Home (Previously Unreleased)
EXTD=
EXTT0=
EXTT1=
EXTT2=
EXTT3=
EXTT4=
EXTT5=
EXTT6=
EXTT7=
EXTT8=
EXTT9=
EXTT10=
EXTT11=
EXTT12=
EXTT13=
EXTT14=
EXTT15=
EXTT16=
EXTT17=
PLAYORDER=
